<svg width="54" height="57" viewBox="0 0 54 57" fill="none" xmlns="http://www.w3.org/2000/svg">
<g opacity="0.6">
<path d="M53.0003 31.3957V31.8715M53.0003 31.8715C52.9917 30.6979 52.5684 29.5655 51.8057 28.6765C51.0431 27.7874 49.9908 27.1995 48.8367 27.0177L45.5244 26.4731V28.9344M53.0003 31.8715L52.9976 37.9573C52.9976 43.3034 52.9976 45.9764 52.1764 48.105C51.5466 49.7225 50.585 51.1887 49.354 52.4083C48.1231 53.6278 46.6504 54.5734 45.0317 55.1836C42.8828 56.0003 40.1837 56.0003 34.7855 56.0003C31.955 56.0003 30.5398 56.0003 29.2203 55.7143C27.2152 55.2784 25.348 54.3528 23.7838 53.0193C22.7627 52.1475 21.9114 51.0255 20.2142 48.7842L12.73 38.8951C12.1725 38.1593 11.8772 37.2566 11.8916 36.332C11.906 35.4074 12.2292 34.5144 12.8094 33.7965C13.1826 33.3383 13.6468 32.9632 14.1723 32.6951C14.6977 32.4271 15.2731 32.2719 15.8615 32.2396C16.45 32.2072 17.0387 32.2984 17.5902 32.5073C18.1416 32.7162 18.6437 33.0382 19.0645 33.4527L22.8503 37.4541V13.3747C22.8503 12.2792 23.2835 11.2286 24.0546 10.454C24.8257 9.67932 25.8715 9.24414 26.9619 9.24414C28.0524 9.24414 29.0982 9.67932 29.8693 10.454C30.6404 11.2286 31.0735 12.2792 31.0735 13.3747V21.5533M45.5244 28.9344C45.5244 26.2174 43.2934 24.0119 40.5423 24.0119H38.0513V26.4731V28.9344M45.5244 28.9344V31.3957M38.0485 26.4731C38.0485 23.7561 35.8202 21.5506 33.0664 21.5506H31.0735V28.9344" stroke="#3AB6FF" stroke-width="2" stroke-linecap="round" stroke-linejoin="round"/>
<path d="M22.8502 21.6254C19.4831 19.7498 17.3698 16.1418 17.3698 12.0002C17.3698 5.92262 22.278 1.00004 28.3332 1.00004C30.764 0.993143 33.1279 1.7994 35.052 3.29164C36.9761 4.78388 38.3509 6.87717 38.9597 9.24133C39.5684 11.6055 39.3763 14.106 38.4138 16.3483C37.4513 18.5907 35.773 20.4473 33.6438 21.6254M15.7274 12.0635H1M1 12.0635C1 13.378 2.40978 13.972 3.29123 14.7805L6.52687 17.5278M1 12.0635C1 10.6582 2.43167 10.0724 3.29123 9.25292L6.52687 6.47263" stroke="#3AB6FF" stroke-width="2" stroke-linecap="round" stroke-linejoin="round"/>
</g>
</svg>
